
<svg width="200" height="200" viewBox="0 0 200 200" fill="none" xmlns="http://www.w3.org/2000/svg">
  <circle cx="100" cy="100" r="90" fill="#6CADDF"/>
  <path d="M40 100C40 67.9086 65.9086 42 98 42H102C134.091 42 160 67.9086 160 100V100C160 132.091 134.091 158 102 158H98C65.9086 158 40 132.091 40 100V100Z" fill="white"/>
  <path d="M63 100C63 82.3269 77.3269 68 95 68H105C122.673 68 137 82.3269 137 100V100C137 117.673 122.673 132 105 132H95C77.3269 132 63 117.673 63 100V100Z" fill="#1C2C5B"/>
  <path d="M78 100L93 85L108 100L93 115L78 100Z" fill="white"/>
  <path d="M95 100L110 85L125 100L110 115L95 100Z" fill="white"/>
</svg>
